<svg width="26" height="24" viewBox="0 0 26 24" fill="none" xmlns="http://www.w3.org/2000/svg">
<g clip-path="url(#clip0)">
<path d="M24.6406 0.339722H1.30729C0.865264 0.339722 0.441341 0.515316 0.12878 0.827877C-0.18378 1.14044 -0.359375 1.56436 -0.359375 2.00639V22.0064C-0.359375 22.4484 -0.18378 22.8723 0.12878 23.1849C0.441341 23.4975 0.865264 23.6731 1.30729 23.6731H24.6406C25.0827 23.6731 25.5066 23.4975 25.8191 23.1849C26.1317 22.8723 26.3073 22.4484 26.3073 22.0064V2.00639C26.3073 1.56436 26.1317 1.14044 25.8191 0.827877C25.5066 0.515316 25.0827 0.339722 24.6406 0.339722V0.339722ZM1.30729 22.0064V2.00639H24.6406V22.0064H1.30729Z" fill="#D6D6D6"/>
<path d="M5.42188 8.65051C5.91633 8.65051 6.39968 8.50389 6.8108 8.22919C7.22192 7.95448 7.54236 7.56404 7.73157 7.10722C7.92079 6.65041 7.9703 6.14774 7.87384 5.66279C7.77738 5.17784 7.53927 4.73238 7.18964 4.38275C6.84001 4.03312 6.39455 3.79501 5.9096 3.69855C5.42465 3.60209 4.92198 3.6516 4.46517 3.84081C4.00835 4.03003 3.6179 4.35047 3.3432 4.76159C3.0685 5.17271 2.92188 5.65606 2.92188 6.15051C2.92188 6.81356 3.18527 7.44944 3.65411 7.91828C4.12295 8.38712 4.75883 8.65051 5.42188 8.65051V8.65051ZM5.42188 4.81718C5.68593 4.81553 5.94453 4.89232 6.16489 5.03783C6.38525 5.18333 6.55744 5.39098 6.65964 5.63447C6.76184 5.87795 6.78943 6.1463 6.73893 6.40549C6.68843 6.66468 6.5621 6.90303 6.37597 7.09034C6.18983 7.27764 5.95228 7.40546 5.69341 7.45759C5.43454 7.50971 5.16603 7.4838 4.92191 7.38313C4.67779 7.28246 4.46905 7.11158 4.32217 6.89213C4.17529 6.67269 4.09688 6.41458 4.09688 6.15051C4.09906 5.79978 4.23936 5.46403 4.48737 5.21601C4.73539 4.968 5.07114 4.8277 5.42188 4.82551V4.81718Z" fill="#FE5634"/>
<path d="M16.9719 9.81068L12.4719 14.3106L9.13854 10.9773C8.98241 10.8221 8.7712 10.735 8.55104 10.735C8.33089 10.735 8.11968 10.8221 7.96354 10.9773L2.92188 16.0856V18.4439L8.58021 12.7856L11.3219 15.4856L8.19688 18.6106H10.4885L17.5302 11.569L22.9885 17.0023V14.6523L18.1469 9.81068C17.9907 9.65548 17.7795 9.56836 17.5594 9.56836C17.3392 9.56836 17.128 9.65548 16.9719 9.81068V9.81068Z" fill="#FE5634"/>
</g>
<defs>
<clipPath id="clip0">
<rect width="26" height="24" fill="white"/>
</clipPath>
</defs>
</svg>


